<svg width="174" height="40" viewBox="0 0 174 40" fill="none" xmlns="http://www.w3.org/2000/svg">
<path d="M26.3391 34.1858C26.3591 33.3467 26.3191 32.4675 26.2191 31.7283C24.1791 30.9491 22.5392 30.1099 21.0593 29.2507C20.4993 28.9311 20.2793 28.8512 20.0193 28.8512C19.7393 28.8512 19.4793 28.971 18.9993 29.2507C15.7394 31.1289 10.0196 33.3467 6.63977 33.4066C6.61977 32.7073 6.71976 32.1079 6.79976 31.5484C6.17978 31.5884 5.31982 31.5884 4.49984 31.5285C4.37984 31.988 4.29984 32.6673 4.29984 33.3067C4.29984 34.6653 5.05982 35.7043 6.81975 35.7043C10.1996 35.7043 16.5194 33.3067 20.0193 31.3686C22.0992 32.5275 24.2191 33.4865 26.3391 34.1858ZM30.6789 27.6523C29.739 27.4525 28.719 27.2327 28.099 27.2327C27.559 27.2327 27.259 27.5325 27.259 28.0719C27.259 28.931 27.839 31.2887 27.839 33.8861C27.839 35.5644 27.719 36.8431 27.4991 37.6823C25.7391 37.4226 23.3792 36.5035 21.0793 35.1448C20.4993 34.8052 20.2593 34.7253 20.0193 34.7253C19.7793 34.7253 19.5393 34.8052 18.9793 35.1249C16.7394 36.4036 14.3595 37.3826 12.5996 37.6823C12.4596 37.2228 12.3396 36.6234 12.2596 36.0839C11.4996 36.3637 10.6397 36.6034 10.0397 36.7233C10.2797 38.8611 10.7997 40 12.3396 40C13.9196 40 17.4794 38.7013 20.0193 37.2428C22.5592 38.7013 26.1191 40 27.5591 40C28.759 40 29.319 39.5604 29.659 38.6014C30.059 37.4825 30.199 36.004 30.199 34.2657C30.199 32.9471 30.039 31.3087 29.759 29.6903C30.379 29.8102 30.9989 29.8901 31.4189 29.97C31.2789 29.3506 30.9989 28.4116 30.6789 27.6523ZM34.2188 13.6863C33.3788 13.6663 32.4988 13.7063 31.7589 13.8062C30.9789 15.8442 30.1389 17.4825 29.279 18.9611C28.959 19.5205 28.879 19.7403 28.879 20C28.879 20.2798 28.999 20.5395 29.279 21.019C31.1589 24.2757 33.3788 29.99 33.4388 33.3667C32.7388 33.3866 32.1388 33.2867 31.5789 33.2068C31.6189 33.8262 31.6189 34.6853 31.5589 35.5045C32.0189 35.6244 32.6988 35.7043 33.3388 35.7043C34.6988 35.7043 35.7387 34.9451 35.7387 33.1868C35.7387 29.8102 33.3388 23.4965 31.3989 20C32.5588 17.9221 33.5188 15.8042 34.2188 13.6863ZM10.3196 29.7303C10.1996 30.3497 10.1196 30.969 10.0396 31.3886C10.6596 31.2488 11.5996 30.969 12.3595 30.6494C12.5595 29.7103 12.7795 28.6913 12.7795 28.0719C12.7795 27.5325 12.4796 27.2328 11.9396 27.2328C11.0796 27.2328 8.71969 27.8122 6.11978 27.8122C4.43984 27.8122 3.15988 27.6923 2.31991 27.4726C2.57989 25.7143 3.49986 23.3567 4.85981 21.059C5.19979 20.4795 5.27979 20.2398 5.27979 20C5.27979 19.7603 5.19979 19.5205 4.87981 18.9611C3.59985 16.7233 2.61988 14.3457 2.31988 12.5874C2.77987 12.4476 3.37985 12.3277 3.91983 12.2478C3.63983 11.4885 3.39984 10.6294 3.27986 10.03C1.13996 10.2697 0 10.7892 0 12.3277C0 13.9061 1.29995 17.4625 2.7599 20C1.29995 22.5375 0 26.0939 0 27.5325C0 28.7313 0.43999 29.2907 1.39994 29.6304C2.51991 30.03 3.99985 30.1698 5.73979 30.1698C7.05974 30.1698 8.6997 30.01 10.3196 29.7303ZM40.0386 12.4675C40.0386 11.2687 39.5986 10.7093 38.6386 10.3696C37.5187 9.97004 36.0387 9.83018 34.2988 9.83018C32.9788 9.83018 31.3389 9.99001 29.7189 10.2697C29.839 9.65036 29.919 9.03099 29.9989 8.61139C29.379 8.75126 28.439 9.03099 27.679 9.35066C27.479 10.2897 27.259 11.3087 27.259 11.9281C27.259 12.4675 27.559 12.7673 28.099 12.7673C28.959 12.7673 31.3189 12.1878 33.9188 12.1878C35.5987 12.1878 36.8787 12.3077 37.7187 12.5275C37.4587 14.2857 36.5387 16.6434 35.1788 18.9411C34.8388 19.5205 34.7588 19.7602 34.7588 20C34.7588 20.2398 34.8388 20.4795 35.1588 21.039C36.4387 23.2767 37.4187 25.6543 37.7187 27.4126C37.2587 27.5525 36.6587 27.6723 36.1188 27.7522C36.3988 28.5115 36.6387 29.3706 36.7587 29.97C38.8986 29.7303 40.0386 29.2108 40.0386 27.6723C40.0386 26.0939 38.7387 22.5375 37.2787 20C38.7386 17.4625 40.0386 13.9061 40.0386 12.4675ZM13.6995 5.81418C13.6795 6.65334 13.7195 7.53248 13.8195 8.27172C15.8594 9.05094 17.4994 9.8901 18.9793 10.7492C19.5393 11.0689 19.7593 11.1488 20.0193 11.1488C20.2993 11.1488 20.5593 11.0289 21.0393 10.7492C24.2992 8.8711 30.019 6.65332 33.3988 6.5934C33.4188 7.29269 33.3188 7.8921 33.2388 8.45153C33.8588 8.41156 34.7188 8.41156 35.5388 8.47151C35.6588 8.01196 35.7388 7.33264 35.7388 6.69329C35.7388 5.33464 34.9788 4.2957 33.2189 4.2957C29.839 4.2957 23.5192 6.69329 20.0193 8.63137C17.9394 7.47253 15.8194 6.51348 13.6995 5.81418ZM5.81979 26.3137C6.65976 26.3337 7.53974 26.2937 8.2797 26.1938C9.05967 24.1558 9.89964 22.5175 10.7596 21.039C11.0796 20.4795 11.1596 20.2598 11.1596 20C11.1596 19.7203 11.0396 19.4605 10.7596 18.981C8.87966 15.7243 6.65974 10.01 6.59976 6.63337C7.29973 6.6134 7.89971 6.71329 8.45968 6.79321C8.41967 6.17383 8.41967 5.31469 8.47968 4.49551C8.01969 4.37562 7.33971 4.2957 6.69975 4.2957C5.33979 4.2957 4.29984 5.05494 4.29984 6.81318C4.29984 10.1898 6.69975 16.5035 8.63969 20C7.47974 22.0779 6.51976 24.1958 5.81979 26.3137ZM9.35966 12.3477C10.2996 12.5475 11.3196 12.7673 11.9396 12.7673C12.4796 12.7673 12.7795 12.4675 12.7795 11.9281C12.7795 11.069 12.1996 8.71131 12.1996 6.11391C12.1996 4.43559 12.3196 3.15686 12.5395 2.3177C14.2995 2.57743 16.6594 3.49651 18.9593 4.85515C19.5393 5.1948 19.7793 5.27472 20.0193 5.27472C20.2593 5.27472 20.4992 5.1948 21.0592 4.87513C23.2992 3.5964 25.6791 2.61738 27.439 2.31767C27.579 2.77721 27.699 3.37662 27.779 3.91608C28.539 3.63635 29.3989 3.39659 29.9989 3.27673C29.759 1.13886 29.239 0 27.699 0C26.1191 0 22.5592 1.2987 20.0193 2.75724C17.4794 1.2987 13.9195 0 12.4796 0C11.2796 0 10.7196 0.439566 10.3796 1.39859C9.97966 2.51748 9.83966 3.996 9.83966 5.73426C9.83966 7.05294 9.99965 8.69131 10.2796 10.3097C9.65967 10.1898 9.0397 10.1099 8.6197 10.03C8.7597 10.6494 9.03967 11.5884 9.35966 12.3477Z" fill="#009639"/>
<path d="M154.295 14.8851C152.175 14.8851 150.355 15.8242 149.355 16.4036L149.335 15.2248H147.575V30.3696H149.455V18.042C151.115 17.023 152.615 16.5434 154.115 16.5434C156.394 16.5434 157.214 17.7223 157.214 20.4795V30.3696H159.094V20.0999C159.094 16.7633 157.734 14.8851 154.295 14.8851ZM139.475 14.8851C137.415 14.8851 135.635 15.5245 134.355 16.4636L135.135 17.7623C136.275 17.023 137.735 16.5435 139.255 16.5435C141.975 16.5435 142.835 17.5824 142.835 20.3797V21.2388H141.175C136.135 21.2388 133.435 22.997 133.435 26.3137C133.435 29.071 135.355 30.7093 138.335 30.7093C139.915 30.7093 141.415 30.1898 142.935 29.2907L142.955 30.3696H144.715V20.06C144.715 16.6833 143.215 14.8851 139.475 14.8851ZM142.835 27.7323C141.415 28.5914 139.995 29.051 138.595 29.051C136.635 29.051 135.415 28.032 135.415 26.2338C135.415 23.976 137.495 22.7772 141.335 22.7772H142.835V27.7323ZM165.894 22.1978L173.374 15.2248H170.914L163.814 22.038V9.63037H161.954V30.3696H163.814V22.4376L171.414 30.3696H173.874L165.894 22.1978ZM127.615 19.6803C129.555 19.1209 130.935 17.4426 130.935 14.9051C130.935 11.5285 128.735 9.6304 124.496 9.6304H118.696V30.3697H124.296C128.995 30.3697 131.615 28.2518 131.615 24.5755C131.615 21.8182 130.195 20.1199 127.615 19.6803ZM120.696 11.3087H123.656C127.376 11.3087 128.895 12.4276 128.895 15.0849C128.895 17.6424 127.216 19.021 123.676 19.021H120.696V11.3087ZM123.956 28.6913H120.696V20.6594H124.276C127.835 20.6594 129.595 21.8582 129.595 24.6354C129.595 27.2328 127.755 28.6913 123.956 28.6913Z" fill="white"/>
<path d="M77.6572 14.8851C75.2373 14.8851 73.2974 15.5644 71.8374 16.5435L73.2374 19.2208C74.3374 18.5215 75.8173 18.1419 77.1973 18.1419C78.7972 18.1419 79.5972 18.8611 79.5972 20.1598V20.5794H78.4772C73.5174 20.5794 70.7575 22.4176 70.7575 25.9341C70.7575 28.7113 72.6374 30.7093 75.6173 30.7093C77.2773 30.7093 78.6572 30.2298 79.8572 29.3307L79.8972 30.3696H83.5971V20.3996C83.5971 16.7033 81.6571 14.8851 77.6572 14.8851ZM79.5972 26.5535C78.7172 27.1928 77.7772 27.5125 76.8373 27.5125C75.6173 27.5125 74.8374 26.7932 74.8374 25.6544C74.8374 24.1558 76.1373 23.4366 78.9572 23.4366H79.5972V26.5535ZM108.956 9.63037V15.5844C107.976 15.1049 107.016 14.8851 105.876 14.8851C102.096 14.8851 98.9365 17.7023 98.9365 22.8771C98.9365 27.3127 101.396 30.7093 105.436 30.7093C106.936 30.7093 108.176 30.2897 109.436 29.3107L109.456 30.3696H113.076V9.63037H108.956ZM108.956 26.2937C108.136 26.8731 107.356 27.1329 106.476 27.1329C104.616 27.1329 103.176 25.6544 103.176 22.7572C103.176 19.8601 104.556 18.4815 106.576 18.4815C107.416 18.4815 108.116 18.6613 108.956 19.0809V26.2937ZM90.9368 13.2068H98.9765V9.63037H86.5569V30.3696H90.9367V21.6184H97.4365V18.062H90.9367V13.2068H90.9368ZM67.4176 9.63037L64.4377 24.5355L61.0178 9.63037H56.378L52.7381 24.6154L49.8182 9.63037H45.3184L50.2582 30.3696H54.878L58.6579 15.025L62.0578 30.3696H66.6776L71.7774 9.63037H67.4176Z" fill="white"/>
</svg>
